<svg width="255" height="49" viewBox="0 0 255 49" fill="none" xmlns="http://www.w3.org/2000/svg"><script xmlns=""/>
<g clip-path="url(#clip0)">
<path d="M116.002 35.3766C114.697 36.2924 113.2 37.201 111.451 38.0843C110.874 38.376 110.314 38.6392 109.762 38.8882V48.3468H129.835V42.4974H116.002V35.3766ZM122.181 29.5831C120.745 31.3557 118.947 33.2493 116.363 35.1174H128.524V29.5831H122.181ZM109.762 35.5087C109.865 35.4589 109.961 35.4172 110.066 35.3644C113.788 33.4851 116.251 31.5153 118.111 29.5831H116.002V22.2926H123.968C125.436 20.6582 127.18 19.2942 129.835 18.4618V16.4432H109.762V35.5087V35.5087ZM145.466 34.3714C145.067 33.419 144.747 32.2115 144.41 30.9339C143.831 28.7395 143.232 26.7423 142.403 25.0998V48.3468H148.688V38.1737C146.865 37.2122 146.009 35.6632 145.466 34.3714V34.3714ZM91.069 29.7407C90.1795 30.566 88.9511 30.9776 87.3846 30.9776H82.4565V21.8433H87.3846C88.9511 21.8433 90.1795 22.2478 91.069 23.0579C91.9574 23.868 92.4026 24.9931 92.4026 26.4333C92.4026 27.8136 91.9574 28.9154 91.069 29.7407V29.7407ZM95.7929 19.2556C94.8585 18.3713 93.7434 17.6812 92.4475 17.1862C91.1517 16.6912 89.72 16.4432 88.1535 16.4432H76.1722V34.349C80.8012 34.6499 84.5039 35.4833 87.7706 36.332H88.1535C89.72 36.332 91.1517 36.085 92.4475 35.59C93.7434 35.095 94.8585 34.413 95.7929 33.543C96.7272 32.673 97.443 31.623 97.9404 30.3932C98.4377 29.1634 98.6868 27.8278 98.6868 26.3876C98.6868 24.9484 98.4377 23.621 97.9404 22.4054C97.443 21.1908 96.7272 20.1408 95.7929 19.2556V19.2556ZM47.2642 43.9793C40.208 40.7686 36.1192 39.1921 32.6871 38.998C32.7341 39.1128 32.7678 39.2348 32.8178 39.3476C33.7215 41.3875 34.9265 43.1266 36.4348 44.5668C37.941 46.007 39.6892 47.1098 41.6784 47.8742C43.6677 48.6395 45.7478 49.0217 47.9177 49.0217C50.0877 49.0217 52.1739 48.6395 54.1785 47.8742C56.183 47.1098 57.9384 46.007 59.4456 44.5668C60.4668 43.5911 61.3389 42.4659 62.0833 41.2137C61.7361 41.4749 61.3971 41.7362 61.0652 41.9933C57.6075 44.6705 54.347 47.2003 47.2642 43.9793ZM59.4456 20.2232C57.9384 18.7829 56.183 17.6812 54.1785 16.9158C52.1739 16.1505 50.0877 15.7683 47.9177 15.7683C45.7478 15.7683 43.6677 16.1505 41.6784 16.9158C39.6892 17.6812 37.941 18.7829 36.4348 20.2232C34.9265 21.6634 33.7215 23.4116 32.8178 25.4657C31.9131 27.5209 31.4607 29.8383 31.4607 32.4179C31.4607 33.6568 31.572 34.8287 31.7803 35.9437C33.9074 35.9092 36.1417 36.333 38.861 37.2295C38.8365 37.1766 38.809 37.1288 38.7855 37.075C38.2126 35.7405 37.9257 34.1722 37.9257 32.3721C37.9257 30.5731 38.2126 29.0058 38.7855 27.6703C39.3573 26.3358 40.1181 25.234 41.0678 24.3629C42.0175 23.4939 43.0866 22.8414 44.2783 22.4054C45.468 21.9714 46.6811 21.7528 47.9177 21.7528C49.1533 21.7528 50.3736 21.9714 51.5796 22.4054C52.7846 22.8414 53.8619 23.4939 54.8116 24.3629C55.7613 25.234 56.522 26.3358 57.0949 27.6703C57.6668 29.0058 57.9537 30.5731 57.9537 32.3721C57.9537 34.1722 57.6668 35.7405 57.0949 37.075C56.522 38.4105 55.7613 39.5123 54.8116 40.3823C53.8997 41.2188 52.8653 41.849 51.7154 42.283C54.88 42.905 56.6466 41.5532 59.1842 39.5875C60.5587 38.5223 62.0792 37.3504 64.0072 36.3737C64.2737 35.1327 64.4187 33.8185 64.4187 32.4179C64.4187 29.8383 63.9663 27.5209 63.0626 25.4657C62.1578 23.4116 60.9518 21.6634 59.4456 20.2232V20.2232ZM76.1722 48.3468H82.4115V38.2215C80.5234 37.8546 78.4566 37.5618 76.1722 37.4043V48.3468ZM197.362 1.05603L215.36 48.3346H216.115L198.116 1.05603H197.362ZM237.372 27.0625L238.784 23.3689L240.221 27.0625H237.372ZM238.154 22.1838L234.863 30.4196H236.089L236.963 28.1195H240.628L241.527 30.4196H242.765L239.473 22.1838H238.154ZM246.966 25.8428L245.728 25.5755C245.378 25.4983 245.113 25.3529 244.935 25.1395C244.756 24.927 244.666 24.6729 244.666 24.3792C244.666 24.1861 244.705 24.0052 244.782 23.8385C244.86 23.6728 244.971 23.5275 245.115 23.4035C245.259 23.2795 245.429 23.1819 245.623 23.1128C245.818 23.0437 246.031 23.0081 246.265 23.0081C246.553 23.0081 246.802 23.0528 247.012 23.1412C247.222 23.2307 247.397 23.3455 247.537 23.4848C247.676 23.624 247.787 23.7765 247.864 23.9432C247.941 24.1099 247.992 24.2664 248.015 24.4138L249.043 24.054C248.996 23.8293 248.91 23.5966 248.785 23.3567C248.661 23.1168 248.488 22.8963 248.266 22.694C248.045 22.4938 247.768 22.3291 247.438 22.2011C247.108 22.074 246.708 22.01 246.242 22.01C245.86 22.01 245.502 22.0771 245.167 22.2123C244.833 22.3485 244.543 22.5284 244.298 22.753C244.053 22.9776 243.861 23.2368 243.72 23.5315C243.581 23.8253 243.511 24.1353 243.511 24.4605C243.511 25.0795 243.7 25.5775 244.077 25.9526C244.454 26.3287 244.939 26.5817 245.53 26.7139L246.708 26.97C247.128 27.0544 247.44 27.2149 247.642 27.4518C247.844 27.6886 247.946 27.9528 247.946 28.2466C247.946 28.6115 247.803 28.9205 247.519 29.1756C247.235 29.4317 246.81 29.5598 246.242 29.5598C245.93 29.5598 245.657 29.511 245.419 29.4144C245.182 29.3179 244.979 29.1888 244.812 29.0251C244.645 28.8625 244.517 28.6755 244.427 28.4621C244.337 28.2486 244.281 28.026 244.259 27.7943L243.161 28.1419C243.2 28.4367 243.288 28.7294 243.428 29.0201C243.569 29.3097 243.765 29.5709 244.019 29.8037C244.271 30.0354 244.582 30.2255 244.952 30.3729C245.322 30.5203 245.756 30.5934 246.253 30.5934C246.696 30.5934 247.093 30.5264 247.444 30.3902C247.794 30.254 248.094 30.0751 248.343 29.8505C248.591 29.6248 248.781 29.3656 248.914 29.0719C249.047 28.7771 249.113 28.4722 249.113 28.1551C249.113 27.5727 248.927 27.0818 248.559 26.6793C248.188 26.2758 247.658 25.9973 246.966 25.8428V25.8428ZM229.075 27.0625L230.486 23.3689L231.923 27.0625H229.075ZM229.856 22.1838L226.565 30.4196H227.791L228.665 28.1195H232.33L233.23 30.4196H234.467L231.175 22.1838H229.856ZM254.042 12.2353V11.1793H249.012V19.4141H254.042V18.3571H250.156V15.8364H253.68V14.7682H250.156V12.2353H254.042ZM157.459 29.4927C156.584 30.3027 155.348 30.7083 153.751 30.7083H148.688V21.8433H153.751C155.348 21.8433 156.584 22.2478 157.459 23.0579C158.332 23.868 158.769 24.9484 158.769 26.2982C158.769 27.6185 158.332 28.6836 157.459 29.4927V29.4927ZM163.312 32.0123C164.532 30.4227 165.143 28.5027 165.143 26.2524C165.143 24.8742 164.902 23.5834 164.42 22.383C163.937 21.1837 163.252 20.149 162.362 19.2789C161.474 18.4089 160.403 17.7188 159.154 17.2086C157.902 16.6993 156.493 16.4432 154.926 16.4432H142.403V20.086C145.422 22.7764 146.568 27.1052 147.374 30.1584C147.682 31.3324 147.976 32.4392 148.293 33.1964C148.778 34.35 149.342 35.2119 150.521 35.6663C152.397 36.3899 155.593 36.0332 160.049 34.6275C161.355 33.9984 162.45 33.1354 163.312 32.0123V32.0123ZM153.466 39.0427L158.227 48.3468H165.189L159.695 37.9155C157.287 38.5996 155.225 38.9695 153.466 39.0427V39.0427ZM198.53 36.7721C196.763 35.5839 195.016 34.5757 193.291 33.7453L193.896 35.3878H185.035L186.51 31.374C184.44 30.9319 182.407 30.7703 180.418 30.8862L173.687 48.3468H180.288L182.955 41.0572H195.975L198.643 48.3468H205.424L201.964 39.3019C200.894 38.4471 199.75 37.5913 198.53 36.7721V36.7721ZM221.14 28.8859L218.223 22.1838H216.671V30.4196H217.802V24.0072L220.604 30.4196H221.654L224.479 24.0072V30.4196H225.61V22.1838H224.082L221.14 28.8859ZM13.6659 46.0843L14.8229 48.3468H21.7862L19.3405 43.7029C17.3625 44.6583 15.4662 45.449 13.6659 46.0843ZM230.853 12.6998L235.323 19.4141H236.513V11.1793H235.369V17.4982L231.239 11.1793H229.709V19.4141H230.853V12.6998ZM223.353 16.058L224.765 12.3634L226.2 16.058H223.353ZM224.134 11.1793L220.843 19.4141H222.069L222.945 17.114H226.608L227.507 19.4141H228.744L225.454 11.1793H224.134ZM228.675 7.3536H224.788V4.83294H228.313V3.7637H224.788V1.23186H228.675V0.174816H223.644V8.40963H228.675V7.3536ZM240.636 1.35891L242.072 5.0535H239.225L240.636 1.35891ZM238.816 6.11055H242.48L243.379 8.40963H244.616L241.326 0.174816H240.006L236.715 8.40963H237.941L238.816 6.11055ZM245.889 12.9732C246.142 13.2334 246.343 13.5577 246.49 13.949C246.639 14.3403 246.712 14.7946 246.712 15.314C246.712 15.8324 246.639 16.2857 246.49 16.6729C246.343 17.0602 246.14 17.3813 245.883 17.6365C245.626 17.8926 245.328 18.0847 244.986 18.2117C244.642 18.3398 244.281 18.4038 243.899 18.4038H242.207V12.1896H243.924C244.304 12.1896 244.664 12.2547 245.002 12.3868C245.34 12.5189 245.636 12.7141 245.889 12.9732V12.9732ZM241.063 11.1793V19.4141H243.934C244.456 19.4141 244.956 19.3267 245.434 19.1529C245.913 18.9781 246.335 18.7189 246.7 18.3744C247.067 18.0298 247.356 17.6019 247.57 17.0917C247.785 16.5804 247.891 15.9868 247.891 15.314C247.891 14.6401 247.785 14.0466 247.57 13.5312C247.356 13.0159 247.07 12.584 246.712 12.2353C246.354 11.8877 245.936 11.6235 245.456 11.4456C244.979 11.2677 244.478 11.1793 243.958 11.1793H241.063ZM217.822 1.19629H219.479C219.976 1.19629 220.367 1.32436 220.651 1.58049C220.935 1.8356 221.076 2.18423 221.076 2.62534C221.076 3.05121 220.935 3.39068 220.651 3.64173C220.367 3.89278 219.976 4.01881 219.479 4.01881H217.822V1.19629ZM217.822 5.04131H219.688C220.069 5.04131 220.418 4.97931 220.734 4.85531C221.049 4.73232 221.317 4.5636 221.539 4.35016C221.759 4.13773 221.933 3.8816 222.057 3.5838C222.181 3.28599 222.244 2.96176 222.244 2.61416C222.244 2.26554 222.181 1.94436 222.057 1.6496C221.933 1.35485 221.759 1.0977 221.539 0.877142C221.317 0.656585 221.049 0.483799 220.734 0.359799C220.418 0.236816 220.069 0.174816 219.688 0.174816H216.678V8.40963H217.822V5.04131ZM231.581 1.19629H233.331C233.798 1.19629 234.176 1.32436 234.464 1.58049C234.751 1.8356 234.895 2.18423 234.895 2.62534C234.895 3.05121 234.751 3.39068 234.464 3.64173C234.176 3.89278 233.798 4.01881 233.331 4.01881H231.581V1.19629ZM231.581 5.04131H232.818L234.708 8.40963H236.039L234.066 4.95999C234.696 4.84412 235.189 4.57478 235.542 4.15298C235.896 3.73117 236.074 3.22196 236.074 2.62534C236.074 2.28383 236.015 1.96468 235.898 1.66688C235.782 1.36908 235.614 1.1099 235.397 0.888324C235.179 0.667767 234.912 0.493964 234.598 0.365898C234.282 0.238849 233.929 0.174816 233.541 0.174816H230.425V8.40963H231.581V5.04131ZM208.386 2.87537C208.554 2.46881 208.775 2.13036 209.051 1.85898C209.328 1.5876 209.644 1.38432 210.003 1.24813C210.36 1.11396 210.734 1.04586 211.122 1.04586C211.504 1.04586 211.875 1.11396 212.237 1.24813C212.599 1.38432 212.918 1.5876 213.195 1.85898C213.471 2.13036 213.692 2.46881 213.86 2.87537C214.026 3.28193 214.11 3.75252 214.11 4.28613C214.11 4.82075 214.026 5.29134 213.86 5.6979C213.692 6.10445 213.471 6.44495 213.195 6.72039C212.918 6.99482 212.599 7.20013 212.237 7.33531C211.875 7.4715 211.504 7.53859 211.122 7.53859C210.734 7.53859 210.36 7.4715 210.003 7.33531C209.644 7.20013 209.328 6.99482 209.051 6.72039C208.775 6.44495 208.554 6.10445 208.386 5.6979C208.22 5.29134 208.135 4.82075 208.135 4.28613C208.135 3.75252 208.22 3.28193 208.386 2.87537ZM208.265 7.46947C208.652 7.83334 209.096 8.1098 209.594 8.29987C210.093 8.48891 210.602 8.58445 211.122 8.58445C211.644 8.58445 212.153 8.48891 212.652 8.29987C213.15 8.1098 213.593 7.83334 213.982 7.46947C214.37 7.1056 214.685 6.65534 214.922 6.12173C215.16 5.58711 215.278 4.97524 215.278 4.28613C215.278 3.59701 215.16 2.98718 214.922 2.45662C214.685 1.92606 214.37 1.47885 213.982 1.116C213.593 0.752127 213.15 0.47465 212.652 0.284585C212.153 0.0945192 211.644 -4.12193e-06 211.122 -4.12193e-06C210.602 -4.12193e-06 210.093 0.0945192 209.594 0.284585C209.096 0.47465 208.652 0.752127 208.265 1.116C207.875 1.47885 207.561 1.92606 207.324 2.45662C207.086 2.98718 206.968 3.59701 206.968 4.28613C206.968 4.97524 207.086 5.58711 207.324 6.12173C207.561 6.65534 207.875 7.1056 208.265 7.46947V7.46947ZM10.3482 30.7083H5.28424V21.8433H10.3482C11.9453 21.8433 13.1809 22.2478 14.055 23.0579C14.9291 23.868 15.3662 24.9484 15.3662 26.2982C15.3662 27.6185 14.9291 28.6836 14.055 29.4927C13.1809 30.3027 11.9453 30.7083 10.3482 30.7083V30.7083ZM14.9138 35.2973C17.0235 34.6976 18.689 33.603 19.9093 32.0123C21.1306 30.4227 21.7403 28.5027 21.7403 26.2524C21.7403 24.8742 21.4993 23.5834 21.0173 22.383C20.5353 21.1837 19.8491 20.149 18.9607 19.2789C18.0712 18.4089 17.001 17.7188 15.7501 17.2086C14.4992 16.6993 13.09 16.4432 11.5235 16.4432H-1V45.4663C0.776821 45.5334 2.88451 45.444 5.28424 45.0709V36.0627H8.5397L12.2557 43.3278C14.0427 42.72 15.9329 41.9527 17.917 41.0003L14.9138 35.2973ZM189.465 23.3283L191.857 29.8383C194.535 30.8587 197.243 32.2644 199.96 34.0634L193.218 16.4432H185.984L181.595 27.8288C183.553 27.8288 185.544 28.0667 187.556 28.523L189.465 23.3283ZM216.429 12.3634L217.864 16.058H215.017L216.429 12.3634ZM213.732 19.4141L214.608 17.114H218.272L219.171 19.4141H220.407L217.117 11.1793H215.799L212.507 19.4141H213.732Z" fill="#ffffff"/>
</g>
<defs>
<clipPath id="clip0">
<rect width="255" height="49" fill="white"/>
</clipPath>
</defs>
</svg>